<svg width="30" height="30" viewBox="0 0 30 30" fill="#000" xmlns="http://www.w3.org/2000/svg">
    <g clip-path="url(#clip0_19_5)">
    <path d="M0 26.2125C0 27.2239 0.394168 28.1749 1.10944 28.8906C1.82471 29.6064 2.77618 30 3.78766 30C4.79995 30 5.75087 29.6063 6.46451 28.8906L14.9999 20.3556L23.5332 28.8891C24.2482 29.6048 25.1991 29.9985 26.2114 29.9985C27.2237 29.9985 28.1756 29.6046 28.8888 28.8891C29.6038 28.1734 29.9984 27.2224 29.9984 26.211C29.9984 25.1995 29.6038 24.2485 28.8888 23.5328L20.3559 14.9997L28.8906 6.46529C29.6054 5.75004 30 4.799 30 3.78755C30 2.77611 29.6054 1.82466 28.8906 1.10941C28.1756 0.394157 27.2246 0 26.2123 0C25.2007 0 24.2498 0.394157 23.5349 1.10954L15.0007 9.64467L6.46546 1.10954C5.75101 0.394157 4.79995 0 3.78847 0C2.77618 0 1.82471 0.394157 1.11025 1.10954C0.394984 1.8248 0.000680303 2.77624 0.000680303 3.78769C0.000680303 4.79914 0.394848 5.75004 1.11025 6.46542L9.64561 14.9999L1.10944 23.5343C0.394168 24.25 0 25.201 0 26.2125ZM2.2933 24.719L11.4202 15.5914C11.5775 15.4347 11.6653 15.2222 11.6653 15.0004C11.6653 14.7785 11.5774 14.5653 11.4202 14.4088L2.2933 5.28214C1.89342 4.88267 1.67395 4.35205 1.67395 3.78755C1.67395 3.22264 1.8941 2.69148 2.2933 2.29242C2.69318 1.89337 3.22273 1.67309 3.78847 1.67309C4.35299 1.67309 4.88444 1.89337 5.28242 2.29242L14.4092 11.4187C14.723 11.7325 15.2787 11.7325 15.5923 11.4187L24.7179 2.29242C25.5161 1.49336 26.909 1.49499 27.7074 2.29242C28.107 2.69229 28.3267 3.22251 28.3267 3.78755C28.3267 4.35205 28.107 4.88363 27.7074 5.28214L18.5814 14.408C18.2546 14.7351 18.2546 15.2638 18.5814 15.5913L27.7059 24.7147C28.1054 25.1143 28.3243 25.6454 28.3243 26.2099C28.3243 26.7744 28.1054 27.3055 27.7051 27.7049C26.9091 28.5031 25.5153 28.5039 24.7164 27.7049L15.5923 18.5814C15.265 18.2539 14.7365 18.2539 14.4092 18.5814L5.2816 27.7081C4.48619 28.5062 3.09239 28.5071 2.29344 27.7081C1.89356 27.3085 1.67409 26.7775 1.67409 26.213C1.67409 25.6488 1.89342 25.1177 2.2933 24.719Z" fill="black"/>
    </g>
    <defs>
    <clipPath id="clip0_19_5">
    <rect width="30" height="30" fill="white"/>
    </clipPath>
    </defs>
    </svg>
    